<svg xmlns="http://www.w3.org/2000/svg" xmlns:xlink="http://www.w3.org/1999/xlink" width="598px" height="79px" viewBox="0 0 598 79" version="1.1">
    <title>编组 2@1x</title>
    <defs>
        <polygon id="path-1" points="0.0990546154 0.157994656 61 0.157994656 61 61 0.0990546154 61"/>
    </defs>
    <g id="页面-1" stroke="none" stroke-width="1" fill="none" fill-rule="evenodd">
        <g id="编组-2">
            <g id="logo-with-title_db86c235743468b254a647d68e287628">
                <g id="编组">
                    <path d="M20,79 L59,79 C70.045695,79 79,70.045695 79,59 L79,20 C79,8.954305 70.045695,-2.02906125e-15 59,0 L20,0 C8.954305,2.02906125e-15 -1.3527075e-15,8.954305 0,20 L0,59 C1.3527075e-15,70.045695 8.954305,79 20,79 Z" id="Fill-1" fill="#FFD000"/>
                    <g transform="translate(34.000000, 62.000000)" fill="#FFFFFF">
                        <path d="M4.9988,1.3804 C3.5998,1.3804 2.2168,1.3144 0.8268,1.2764 C2.2078,1.3454 3.5998,1.3804 4.9988,1.3804" id="Fill-2"/>
                        <path d="M9.1712,1.276 C7.7812,1.314 6.3982,1.38 4.9992,1.38 C6.3982,1.38 7.7892,1.345 9.1712,1.276" id="Fill-4"/>
                    </g>
                    <g transform="translate(14.000000, 14.000000)" fill="#000000">
                        <path d="M23.5437,17.3629 L14.1037,17.3629 C15.0917,18.5579 16.4787,19.5369 18.2647,20.2999 C19.9977,21.0449 21.8967,21.4949 23.9597,21.6509 L22.5557,24.0929 C20.5267,23.8509 18.6027,23.2969 16.7827,22.4299 C14.7537,21.4599 13.1677,20.2389 12.0227,18.7659 C9.6307,21.9369 5.6867,23.7379 0.1907,24.1719 L1.0227,21.5469 C2.7737,21.5299 4.5167,21.1049 6.2507,20.2739 C7.9147,19.4769 9.1537,18.5069 9.9687,17.3629 L0.5817,17.3629 L0.5817,15.1019 L10.5927,15.1019 L10.5927,12.9449 L1.1527,12.9449 L1.1527,10.7099 L10.5927,10.7099 L10.5927,8.9429 L1.1527,8.9429 L1.1527,6.7079 L10.5927,6.7079 L10.5927,4.9669 L0.5817,4.9669 L0.5817,2.7059 L4.6117,2.7059 L4.3777,0.7829 L7.2127,0.7829 C7.3167,1.4239 7.4117,2.0659 7.4987,2.7059 L16.5747,2.7059 C16.7127,1.8399 16.7997,1.1989 16.8347,0.7829 L19.7207,0.7829 C19.6687,1.4239 19.5907,2.0659 19.4867,2.7059 L23.5437,2.7059 L23.5437,4.9669 L13.3757,4.9669 L13.3757,6.7079 L22.9717,6.7079 L22.9717,8.9429 L13.3757,8.9429 L13.3757,10.7099 L22.9717,10.7099 L22.9717,12.9449 L13.3757,12.9449 L13.3757,15.1019 L23.5437,15.1019 L23.5437,17.3629 Z" id="Fill-6"/>
                        <path d="M34.1277,20.2994 L31.1637,20.2994 C32.0647,19.0174 32.8537,17.4414 33.5297,15.5704 C34.3097,13.4214 34.8037,11.2034 35.0117,8.9174 L31.0597,8.9174 L31.0597,6.7344 L40.1087,6.7344 L40.1087,4.7334 L42.7617,4.7334 L42.7617,6.7344 L45.2577,6.7344 L45.2577,8.9174 L42.7617,8.9174 L42.7617,15.0244 C42.7617,17.1034 42.5017,18.8614 41.9817,20.2994 L39.0687,20.2994 C39.5017,19.3984 39.7877,18.5494 39.9267,17.7524 C40.0477,17.0944 40.1087,16.2114 40.1087,15.1024 L40.1087,8.9174 L37.6907,8.9174 C37.4997,10.9264 37.0657,13.0234 36.3907,15.2054 C35.6967,17.4064 34.9427,19.1044 34.1277,20.2994 L34.1277,20.2994 Z M29.6807,21.5724 L46.4797,21.5724 L46.4797,3.5374 L29.6807,3.5374 L29.6807,21.5724 Z M26.9767,1.2504 L47.8067,1.2504 C48.7077,1.2684 49.1677,1.7274 49.1847,2.6284 L49.1847,23.8594 L28.3547,23.8594 C27.4527,23.8424 26.9937,23.3824 26.9767,22.4824 L26.9767,1.2504 Z" id="Fill-8"/>
                        <path d="M14.8841,32.5582 L12.0231,32.5582 C13.0641,30.7392 13.8781,29.1622 14.4681,27.8292 L17.3551,27.8292 C17.3371,27.8642 17.1631,28.2362 16.8341,28.9462 L23.4401,28.9462 L23.4401,31.0772 L19.6691,31.0772 C20.0331,31.7182 20.4491,32.4892 20.9171,33.3902 L18.1611,33.3902 C17.8141,32.6792 17.4061,31.9092 16.9381,31.0772 L15.7421,31.0772 C15.4991,31.5282 15.2131,32.0212 14.8841,32.5582 L14.8841,32.5582 Z M6.0421,48.7742 L19.1231,48.7742 L19.1231,46.6952 L6.0421,46.6952 L6.0421,48.7742 Z M6.0421,41.1342 L17.9261,41.1342 L17.9261,39.4962 L6.0421,39.4962 L6.0421,41.1342 Z M20.4751,38.1452 C20.6311,37.4352 20.7431,36.7422 20.8131,36.0672 L3.4421,36.0672 L3.4421,37.4172 L19.2271,37.4172 C19.8681,37.4172 20.2841,37.6612 20.4751,38.1452 L20.4751,38.1452 Z M13.7921,34.0132 L22.0351,34.0132 C22.5721,34.0132 22.9801,34.1692 23.2581,34.4812 C23.5181,34.7762 23.6301,35.1742 23.5951,35.6762 C23.4571,36.9582 23.3011,38.0592 23.1281,38.9772 L20.6051,38.9772 L20.6051,43.2132 L6.0421,43.2132 L6.0421,44.5642 L20.4491,44.5642 C21.3501,44.5812 21.8101,45.0402 21.8271,45.9422 L21.8271,50.9052 L4.6901,50.9052 C3.7881,50.8872 3.3291,50.4282 3.3121,49.5282 L3.3121,38.8992 L0.7111,38.8992 L0.7111,34.0132 L10.6191,34.0132 C10.4981,33.5972 10.3851,33.2512 10.2811,32.9742 L13.4541,32.9742 C13.6441,33.5452 13.7571,33.8922 13.7921,34.0132 L13.7921,34.0132 Z M5.7301,31.0772 L4.5601,31.0772 C4.0401,32.0302 3.5891,32.8012 3.2081,33.3902 L0.2431,33.3902 C1.5781,31.1902 2.5841,29.3352 3.2591,27.8292 L6.1721,27.8292 C6.1551,27.8642 5.9811,28.2362 5.6521,28.9462 L12.2581,28.9462 L12.2581,31.0772 L8.4611,31.0772 C8.7381,31.5442 9.1541,32.3162 9.7091,33.3902 L6.9261,33.3902 C6.4751,32.4712 6.0771,31.7012 5.7301,31.0772 L5.7301,31.0772 Z" id="Fill-10"/>
                        <path d="M46.6624,31.7008 L29.6814,31.7008 L29.6814,34.2998 L26.7684,34.2998 L26.7684,29.4138 L36.5724,29.4138 C36.5554,29.3278 36.3984,28.7998 36.1044,27.8288 L39.2764,27.8288 C39.5014,28.5048 39.6664,29.0328 39.7704,29.4138 L48.0144,29.4138 C48.5514,29.4138 48.9594,29.5698 49.2364,29.8818 C49.4964,30.1768 49.6094,30.5748 49.5754,31.0768 C49.4184,32.4288 49.2534,33.5288 49.0804,34.3778 L46.1944,34.3778 C46.4364,33.1998 46.5924,32.3068 46.6624,31.7008 M49.8084,48.8008 L47.0784,50.1518 C44.8934,47.5878 43.4204,44.5038 42.6574,40.8998 C42.1714,41.0208 41.6434,41.1258 41.0714,41.2118 L41.0714,45.5518 C41.1054,47.7178 40.6724,49.6058 39.7704,51.2178 L36.6764,51.2178 C37.7164,49.1898 38.2364,47.3368 38.2364,45.6558 L38.2364,45.5778 C35.5664,47.4838 31.6744,48.9218 26.5604,49.8908 L27.5224,46.9028 C29.3944,46.5568 31.2844,46.0188 33.1914,45.2918 C35.3064,44.4778 36.9884,43.5948 38.2364,42.6408 L38.2364,41.1598 C38.2364,40.9518 38.2274,40.7878 38.2104,40.6668 C35.6444,42.3648 31.8654,43.7508 26.8724,44.8238 L27.8344,41.8098 C32.0304,41.0648 35.2804,39.9558 37.5864,38.4828 C37.3084,37.9298 37.0834,37.5308 36.9104,37.2878 C34.2924,38.5878 30.9374,39.5408 26.8464,40.1458 L27.8084,37.3398 C29.0914,37.3048 30.5214,37.0968 32.0994,36.7168 C33.5204,36.3698 34.7604,35.9628 35.8184,35.4948 L30.3054,35.4948 L30.3054,33.2608 L45.8824,33.2608 L45.8824,35.4948 L39.9274,35.4948 C39.5794,35.7378 39.3194,35.9108 39.1464,36.0138 C39.8744,36.9158 40.4034,37.9028 40.7334,38.9768 C41.7734,38.8048 42.9004,38.5528 44.1134,38.2228 C45.7784,37.7558 47.4594,36.9938 49.1584,35.9358 L49.1584,38.4828 C48.0314,39.1768 46.6794,39.7738 45.1014,40.2758 C45.4314,41.8878 45.9864,43.4298 46.7664,44.9018 C47.5984,46.4788 48.6124,47.7778 49.8084,48.8008" id="Fill-12"/>
                    </g>
                </g>

            </g>
            <g id="编组" transform="translate(94.000000, 10.000000)">
                <path d="M61.8970858,43.2422585 L36.8764102,43.2422585 C39.4955348,46.3599533 43.1712826,48.9134471 47.9048405,50.9013394 C52.4990504,52.8446464 57.5307703,54.0190341 63,54.4256697 L59.2777238,60.7966822 C53.9013136,60.1633859 48.8007506,58.7179856 43.9757975,56.4590808 C38.5993873,53.92893 34.3947345,50.7435405 31.3620764,46.9024453 C25.0206755,55.171246 14.5664918,59.869964 0,61 L2.20582849,54.1544237 C6.84656689,54.1100719 11.4647532,53.0024453 16.0599127,50.8334111 C20.4713323,48.7554148 23.7563361,46.2245638 25.916823,43.2422585 L1.03383374,43.2422585 L1.03383374,37.3455763 L27.570957,37.3455763 L27.570957,31.7201401 L2.55028148,31.7201401 L2.55028148,25.8911526 L27.570957,25.8911526 L27.570957,21.2823052 L2.55028148,21.2823052 L2.55028148,15.4533178 L27.570957,15.4533178 L27.570957,10.9121652 L1.03383374,10.9121652 L1.03383374,5.01548293 L11.7175736,5.01548293 L11.0972734,0 L18.6104316,0 C18.8860415,1.67206107 19.1381497,3.34435558 19.3686555,5.01548293 L43.4245778,5.01548293 C43.7915828,2.75681157 44.021139,1.08428364 44.1137211,0 L51.7645656,0 C51.6268793,1.67206107 51.4201126,3.34435558 51.1442653,5.01548293 L61.8970858,5.01548293 L61.8970858,10.9121652 L34.9461916,10.9121652 L34.9461916,15.4533178 L60.3804006,15.4533178 L60.3804006,21.2823052 L34.9461916,21.2823052 L34.9461916,25.8911526 L60.3804006,25.8911526 L60.3804006,31.7201401 L34.9461916,31.7201401 L34.9461916,37.3455763 L61.8970858,37.3455763 L61.8970858,43.2422585 Z" id="Fill-1" fill="#000000"/>
                <path d="M87.6768402,49.7093492 L79.9343534,49.7093492 C82.2881386,46.364033 84.348841,42.2495952 86.1148231,37.3667367 C88.152135,31.7612357 89.4428223,25.973556 89.9859496,20.0057995 L79.6625559,20.0057995 L79.6625559,14.3092091 L103.297479,14.3092091 L103.297479,9.0872178 L110.224807,9.0872178 L110.224807,14.3092091 L116.744673,14.3092091 L116.744673,20.0057995 L110.224807,20.0057995 L110.224807,35.9427059 C110.224807,41.3678966 109.545781,45.957167 108.187495,49.7093492 L100.580673,49.7093492 C101.712071,47.3590094 102.459163,45.1432015 102.82195,43.0633271 C103.138423,41.3454746 103.297479,39.0397452 103.297479,36.1461389 L103.297479,20.0057995 L96.9811102,20.0057995 C96.4824249,25.2509135 95.3514946,30.7207146 93.5857463,36.417305 C91.7741527,42.1594401 89.8046733,46.5898879 87.6768402,49.7093492 L87.6768402,49.7093492 Z M76.0632269,53.0324771 L119.936773,53.0324771 L119.936773,5.96775649 L76.0632269,5.96775649 L76.0632269,53.0324771 Z M69,0 L123.400671,0 C125.754222,0.045311133 126.954389,1.2439541 127,3.59429395 L127,59 L72.5995628,59 C70.244842,58.9546889 69.0444419,57.7560459 69,55.4059396 L69,0 Z" id="Fill-3" fill="#000000"/>
                <path d="M171.233803,12.0925779 L163.763862,12.0925779 C166.480247,7.44167439 168.607699,3.41134903 170.147155,0 L177.685625,0 C177.639783,0.0894712551 177.18674,1.04139049 176.327199,2.85713067 L193.576498,2.85713067 L193.576498,8.30526651 L183.72978,8.30526651 C184.680304,9.94435244 185.766951,11.9161525 186.989254,14.2186071 L179.790858,14.2186071 C178.884539,12.4026381 177.821281,10.4312957 176.598744,8.30526651 L173.474925,8.30526651 C172.840385,9.45763797 172.093578,10.7200751 171.233803,12.0925779 L171.233803,12.0925779 Z M148.144066,53.5518642 L182.303526,53.5518642 L182.303526,48.2364478 L148.144066,48.2364478 L148.144066,53.5518642 Z M148.144066,34.0180696 L179.179473,34.0180696 L179.179473,29.832142 L148.144066,29.832142 L148.144066,34.0180696 Z M185.835013,26.3773159 C186.242447,24.5615757 186.536211,22.7895415 186.717709,21.0618996 L141.353105,21.0618996 L141.353105,24.5169545 L182.575071,24.5169545 C184.249481,24.5169545 185.336128,25.1377615 185.835013,26.3773159 L185.835013,26.3773159 Z M168.381763,15.8130718 L189.90959,15.8130718 C191.312455,15.8130718 192.376415,16.211688 193.101236,17.0089204 C193.780215,17.7626756 194.074214,18.7811835 193.984166,20.0653591 C193.621405,23.3437598 193.213971,26.1562693 192.76163,28.503574 L186.174385,28.503574 L186.174385,39.3334859 L148.144066,39.3334859 L148.144066,42.7885408 L185.766951,42.7885408 C188.12034,42.8329332 189.320658,44.007272 189.366032,46.3097267 L189.366032,59 L144.612813,59 C142.258254,58.9553788 141.057937,57.7812688 141.013498,55.4788141 L141.013498,28.3042659 L134.222537,28.3042659 L134.222537,15.8130718 L160.096719,15.8130718 C159.779098,14.7499428 159.485568,13.8646121 159.213555,13.1557069 L167.498598,13.1557069 C167.996548,14.6172233 168.290312,15.5036981 168.381763,15.8130718 L168.381763,15.8130718 Z M147.329198,8.30526651 L144.273206,8.30526651 C142.915014,10.7418136 141.73715,12.7133848 140.741953,14.2186071 L133,14.2186071 C136.485879,8.59404585 139.111982,3.85367112 140.877843,0 L148.483673,0 C148.438064,0.0894712551 147.985022,1.04139049 147.12548,2.85713067 L164.375013,2.85713067 L164.375013,8.30526651 L154.459765,8.30526651 C155.183651,9.50134387 156.270065,11.4726862 157.719708,14.2186071 L150.453016,14.2186071 C149.275386,11.8713024 148.234347,9.89996005 147.329198,8.30526651 L147.329198,8.30526651 Z" id="Fill-5" fill="#000000"/>
                <g transform="translate(200.000000, 0.000000)">
                    <mask id="mask-2" fill="white">
                        <use xlink:href="#path-1"/>
                    </mask>
                    <g id="Clip-8"/>
                    <path d="M52.75707,10.2309107 L8.27328923,10.2309107 L8.27328923,16.9909679 L0.643831538,16.9909679 L0.643831538,4.28178092 L26.3260046,4.28178092 C26.28002,4.05687252 25.87132,2.68250992 25.09967,0.157994656 L33.4104508,0.157994656 C34.0002738,1.91581908 34.4324354,3.29088015 34.7048238,4.28178092 L56.2995277,4.28178092 C57.7067508,4.28178092 58.7740162,4.68736107 59.5013238,5.4987542 C60.1824123,6.26567786 60.4770892,7.30174656 60.3869969,8.60835725 C59.9780623,12.1237733 59.5461354,14.9863496 59.0926238,17.193758 L51.5307354,17.193758 C52.1663085,14.1295557 52.5752431,11.8089947 52.75707,10.2309107 M61.0000469,54.7131817 L53.8470931,58.2281321 C48.1250585,51.5588763 44.2642277,43.536445 42.2664777,34.1620023 C40.9943931,34.477945 39.6096931,34.7482542 38.11097,34.9733954 L38.11097,46.2628191 C38.2012969,51.8969374 37.0657585,56.8088344 34.7048238,61.0001397 L26.5983931,61.0001397 C29.3232162,55.7268992 30.6856277,50.9051053 30.6856277,46.5331282 L30.6856277,46.3303382 C23.6912738,51.2885672 13.4955931,55.0277275 0.0990546154,57.5522427 L2.61952769,49.7780023 C7.52416231,48.8769718 12.4738431,47.4793267 17.4699777,45.5866969 C23.0101854,43.468926 27.4157931,41.1704832 30.6856277,38.6911359 L30.6856277,34.8378916 C30.6856277,34.2972733 30.6621662,33.869342 30.6175892,33.5536321 C23.8956238,37.9710099 13.9957931,41.5760634 0.916454615,44.3699565 L3.43692769,36.5279641 C14.4267815,34.5908649 22.9421469,31.7059374 28.9825546,27.8748115 C28.2554815,26.4331626 27.6649546,25.3970939 27.2114431,24.7654412 C20.3534008,28.1453534 11.5658815,30.6244679 0.848181538,32.2013878 L3.36865462,24.9004794 C6.72905077,24.8106092 10.4758585,24.2699908 14.6088431,23.2781588 C18.3321892,22.3771282 21.5795008,21.3175443 24.3503085,20.1008038 L9.90832385,20.1008038 L9.90832385,14.286945 L50.71357,14.286945 L50.71357,20.1008038 L35.1135238,20.1008038 C34.2046238,20.7322237 33.5235354,21.1822733 33.0697892,21.4528153 C34.9774469,23.7966588 36.3619123,26.3656435 37.2252969,29.1595366 C39.95012,28.709487 42.9018162,28.055716 46.0813238,27.1989221 C50.4411815,25.9819489 54.8456162,23.9994489 59.2969738,21.2500252 L59.2969738,27.8748115 C56.3443392,29.6780366 52.8018815,31.2328382 48.6698354,32.5394489 C49.5320469,36.7307542 50.9859585,40.7425519 53.0294585,44.5727466 C55.2095046,48.6741817 57.8662892,52.0543267 61.0000469,54.7131817" id="Fill-7" fill="#000000" mask="url(#mask-2)"/>
                </g>
            </g>
        </g>
    </g>
</svg>
